ffmpeg version 4.4.2-0ubuntu0.22.04.1 Copyright (c) 2000-2021 the FFmpeg developers
  built with gcc 11 (Ubuntu 11.2.0-19ubuntu1)
  configuration: --prefix=/usr --extra-version=0ubuntu0.22.04.1 --toolchain=hardened --libdir=/usr/lib/x86_64-linux-gnu --incdir=/usr/include/x86_64-linux-gnu --arch=amd64 --enable-gpl --disable-stripping --enable-gnutls --enable-ladspa --enable-libaom --enable-libass --enable-libbluray --enable-libbs2b --enable-libcaca --enable-libcdio --enable-libcodec2 --enable-libdav1d --enable-libflite --enable-libfontconfig --enable-libfreetype --enable-libfribidi --enable-libgme --enable-libgsm --enable-libjack --enable-libmp3lame --enable-libmysofa --enable-libopenjpeg --enable-libopenmpt --enable-libopus --enable-libpulse --enable-librabbitmq --enable-librubberband --enable-libshine --enable-libsnappy --enable-libsoxr --enable-libspeex --enable-libsrt --enable-libssh --enable-libtheora --enable-libtwolame --enable-libvidstab --enable-libvorbis --enable-libvpx --enable-libwebp --enable-libx265 --enable-libxml2 --enable-libxvid --enable-libzimg --enable-libzmq --enable-libzvbi --enable-lv2 --enable-omx --enable-openal --enable-opencl --enable-opengl --enable-sdl2 --enable-pocketsphinx --enable-librsvg --enable-libmfx --enable-libdc1394 --enable-libdrm --enable-libiec61883 --enable-chromaprint --enable-frei0r --enable-libx264 --enable-shared
  libavutil      56. 70.100 / 56. 70.100
  libavcodec     58.134.100 / 58.134.100
  libavformat    58. 76.100 / 58. 76.100
  libavdevice    58. 13.100 / 58. 13.100
  libavfilter     7.110.100 /  7.110.100
  libswscale      5.  9.100 /  5.  9.100
  libswresample   3.  9.100 /  3.  9.100
  libpostproc    55.  9.100 / 55.  9.100
Input #0, flv, from '/storage/32426326/20250728/32426326-20250728-151948-583.flv':
  Metadata:
    displayHeight   : 1440
    3.1             : false
    audiochannels   : 2
    2.1             : false
    cdn_ip          : 192.168.252.6
    5.1             : false
    displayWidth    : 2560
    7.1             : false
    encoder         : obs-output module (libobs version 31.0.2)
    4.1             : false
    4.0             : false
    fps             : 60
    fileSize        : 0
    Title           : 技术主播没有GG
    Artist          : 蓝音BuBuLine (32426326)
    Comment         : mikufans直播间 32426326 的直播录像
                    : 主播名: 蓝音BuBuLine
                    : 直播标题: 技术主播没有GG
                    : 直播分区: 单机游戏·主机游戏
                    : 录制时间: 2025-07-28T15:19:48.6503435+00:00
                    : 直播服务器:
                    : d1--ov-gotcha07b.bilivideo.com [156.59.188.246]
                    : 
                    : 使用 mikufans录播姬 录制 https://rec.danmuji.org
                    : 录播姬版本: 2.17.3
    RecordedBy      : BililiveRecorder mikufans录播姬
    RecordedFrom    : d1--ov-gotcha07b.bilivideo.com
    StreamServers   : d1--ov-gotcha07b.bilivideo.com [156.59.188.246]
    RecorderVersion : 2.17.3+Branch.tags-v2.17.3.Sha.96407e2eba9a597dd9997c6fb731725f4294a371
    StartTime       : Mon, 28 Jul 2025 15:19:48 +0000
    RoomId          : 32426326
    ShortId         : 0
    Name            : 蓝音BuBuLine
    StreamTitle     : 技术主播没有GG
    AreaNameParent  : 单机游戏
    AreaNameChild   : 主机游戏
  Duration: 03:12:47.39, start: 0.004000, bitrate: 8335 kb/s
  Stream #0:0: Video: h264 (High), yuv420p(tv, bt709, progressive), 2560x1440 [SAR 1:1 DAR 16:9], 10240 kb/s, 60 fps, 240 tbr, 1k tbn, 120 tbc
  Stream #0:1: Audio: aac (LC), 48000 Hz, stereo, fltp, 196 kb/s
Stream mapping:
  Stream #0:0 -> #0:0 (h264 (native) -> png (native))
Press [q] to stop, [?] for help
Output #0, image2, to '/storage/32426326/20250728/32426326-20250728-151948-583.all.thumb.png':
  Metadata:
    displayHeight   : 1440
    3.1             : false
    audiochannels   : 2
    2.1             : false
    cdn_ip          : 192.168.252.6
    5.1             : false
    displayWidth    : 2560
    7.1             : false
    AreaNameChild   : 主机游戏
    4.1             : false
    4.0             : false
    fps             : 60
    fileSize        : 0
    Title           : 技术主播没有GG
    Artist          : 蓝音BuBuLine (32426326)
    Comment         : mikufans直播间 32426326 的直播录像
                    : 主播名: 蓝音BuBuLine
                    : 直播标题: 技术主播没有GG
                    : 直播分区: 单机游戏·主机游戏
                    : 录制时间: 2025-07-28T15:19:48.6503435+00:00
                    : 直播服务器:
                    : d1--ov-gotcha07b.bilivideo.com [156.59.188.246]
                    : 
                    : 使用 mikufans录播姬 录制 https://rec.danmuji.org
                    : 录播姬版本: 2.17.3
    RecordedBy      : BililiveRecorder mikufans录播姬
    RecordedFrom    : d1--ov-gotcha07b.bilivideo.com
    StreamServers   : d1--ov-gotcha07b.bilivideo.com [156.59.188.246]
    RecorderVersion : 2.17.3+Branch.tags-v2.17.3.Sha.96407e2eba9a597dd9997c6fb731725f4294a371
    StartTime       : Mon, 28 Jul 2025 15:19:48 +0000
    RoomId          : 32426326
    ShortId         : 0
    Name            : 蓝音BuBuLine
    StreamTitle     : 技术主播没有GG
    AreaNameParent  : 单机游戏
    encoder         : Lavf58.76.100
  Stream #0:0: Video: png, rgb24(pc, gbr/bt709/bt709, progressive), 2560x1440 [SAR 1:1 DAR 16:9], q=2-31, 200 kb/s, 60 fps, 60 tbn
    Metadata:
      encoder         : Lavc58.134.100 png
frame=    1 fps=0.0 q=0.0 size=N/A time=00:00:00.00 bitrate=N/A speed=   0x    frame=    1 fps=0.0 q=-0.0 Lsize=N/A time=00:00:00.01 bitrate=N/A speed=0.0278x    
video:1125kB audio:0kB subtitle:0kB other streams:0kB global headers:0kB muxing overhead: unknown
ffmpeg version 4.4.2-0ubuntu0.22.04.1 Copyright (c) 2000-2021 the FFmpeg developers
  built with gcc 11 (Ubuntu 11.2.0-19ubuntu1)
  configuration: --prefix=/usr --extra-version=0ubuntu0.22.04.1 --toolchain=hardened --libdir=/usr/lib/x86_64-linux-gnu --incdir=/usr/include/x86_64-linux-gnu --arch=amd64 --enable-gpl --disable-stripping --enable-gnutls --enable-ladspa --enable-libaom --enable-libass --enable-libbluray --enable-libbs2b --enable-libcaca --enable-libcdio --enable-libcodec2 --enable-libdav1d --enable-libflite --enable-libfontconfig --enable-libfreetype --enable-libfribidi --enable-libgme --enable-libgsm --enable-libjack --enable-libmp3lame --enable-libmysofa --enable-libopenjpeg --enable-libopenmpt --enable-libopus --enable-libpulse --enable-librabbitmq --enable-librubberband --enable-libshine --enable-libsnappy --enable-libsoxr --enable-libspeex --enable-libsrt --enable-libssh --enable-libtheora --enable-libtwolame --enable-libvidstab --enable-libvorbis --enable-libvpx --enable-libwebp --enable-libx265 --enable-libxml2 --enable-libxvid --enable-libzimg --enable-libzmq --enable-libzvbi --enable-lv2 --enable-omx --enable-openal --enable-opencl --enable-opengl --enable-sdl2 --enable-pocketsphinx --enable-librsvg --enable-libmfx --enable-libdc1394 --enable-libdrm --enable-libiec61883 --enable-chromaprint --enable-frei0r --enable-libx264 --enable-shared
  libavutil      56. 70.100 / 56. 70.100
  libavcodec     58.134.100 / 58.134.100
  libavformat    58. 76.100 / 58. 76.100
  libavdevice    58. 13.100 / 58. 13.100
  libavfilter     7.110.100 /  7.110.100
  libswscale      5.  9.100 /  5.  9.100
  libswresample   3.  9.100 /  3.  9.100
  libpostproc    55.  9.100 / 55.  9.100
[flv @ 0x5ba70a130400] Auto-inserting h264_mp4toannexb bitstream filter
Input #0, concat, from '/storage/32426326/20250728/32426326-20250728-151948-583.all.concat.txt':
  Duration: N/A, start: 0.000000, bitrate: 10436 kb/s
  Stream #0:0: Video: h264 (High), yuv420p(tv, bt709, progressive), 2560x1440 [SAR 1:1 DAR 16:9], 10240 kb/s, 60 fps, 240 tbr, 1k tbn, 120 tbc
  Stream #0:1: Audio: aac (LC), 48000 Hz, stereo, fltp, 196 kb/s
Output #0, flv, to '/storage/32426326/20250728/32426326-20250728-151948-583.all.flv':
  Metadata:
    encoder         : Lavf58.76.100
  Stream #0:0: Video: h264 (High) ([7][0][0][0] / 0x0007), yuv420p(tv, bt709, progressive), 2560x1440 [SAR 1:1 DAR 16:9], q=2-31, 10240 kb/s, 60 fps, 240 tbr, 1k tbn, 1k tbc
  Stream #0:1: Audio: aac (LC) ([10][0][0][0] / 0x000A), 48000 Hz, stereo, fltp, 196 kb/s
Stream mapping:
  Stream #0:0 -> #0:0 (copy)
  Stream #0:1 -> #0:1 (copy)
Press [q] to stop, [?] for help
frame=    1 fps=0.0 q=-1.0 size=       0kB time=00:00:00.00 bitrate=N/A speed=N/A    frame= 3533 fps=0.0 q=-1.0 size=   30464kB time=00:00:58.81 bitrate=4243.4kbits/s speed= 117x    frame= 6408 fps=6398 q=-1.0 size=   63488kB time=00:01:46.68 bitrate=4875.0kbits/s speed= 107x    frame= 8712 fps=5801 q=-1.0 size=   98816kB time=00:02:25.06 bitrate=5580.3kbits/s speed=96.6x    frame=10502 fps=5244 q=-1.0 size=  136192kB time=00:02:54.89 bitrate=6379.2kbits/s speed=87.3x    frame=12161 fps=4858 q=-1.0 size=  170752kB time=00:03:22.53 bitrate=6906.6kbits/s speed=80.9x    frame=13737 fps=4572 q=-1.0 size=  203520kB time=00:03:48.75 bitrate=7288.2kbits/s speed=76.1x    frame=15401 fps=4393 q=-1.0 size=  238080kB time=00:04:16.50 bitrate=7603.6kbits/s speed=73.2x    frame=17110 fps=4271 q=-1.0 size=  273664kB time=00:04:44.97 bitrate=7866.8kbits/s speed=71.1x    frame=18701 fps=4150 q=-1.0 size=  306688kB time=00:05:11.45 bitrate=8066.5kbits/s speed=69.1x    frame=20384 fps=4071 q=-1.0 size=  341760kB time=00:05:39.53 bitrate=8245.7kbits/s speed=67.8x    frame=22093 fps=4010 q=-1.0 size=  377344kB time=00:06:07.97 bitrate=8400.6kbits/s speed=66.8x    frame=23721 fps=3947 q=-1.0 size=  411136kB time=00:06:35.12 bitrate=8524.0kbits/s speed=65.7x    frame=25432 fps=3907 q=-1.0 size=  446720kB time=00:07:03.60 bitrate=8639.1kbits/s speed=65.1x    frame=27050 fps=3859 q=-1.0 size=  480512kB time=00:07:30.57 bitrate=8736.4kbits/s speed=64.3x    frame=28655 fps=3815 q=-1.0 size=  513792kB time=00:07:57.30 bitrate=8818.2kbits/s speed=63.5x    frame=30309 fps=3783 q=-1.0 size=  548352kB time=00:08:24.86 bitrate=8897.7kbits/s speed=  63x    frame=31914 fps=3749 q=-1.0 size=  581376kB time=00:08:51.60 bitrate=8959.1kbits/s speed=62.4x    frame=33476 fps=3714 q=-1.0 size=  613888kB time=00:09:17.61 bitrate=9018.7kbits/s speed=61.9x    frame=35181 fps=3698 q=-1.0 size=  649472kB time=00:09:46.01 bitrate=9079.2kbits/s speed=61.6x    frame=36815 fps=3677 q=-1.0 size=  683520kB time=00:10:13.23 bitrate=9131.0kbits/s speed=61.2x    frame=38432 fps=3656 q=-1.0 size=  716800kB time=00:10:40.16 bitrate=9172.7kbits/s speed=60.9x    frame=40186 fps=3649 q=-1.0 size=  752640kB time=00:11:09.35 bitrate=9211.3kbits/s speed=60.8x    frame=41857 fps=3635 q=-1.0 size=  787712kB time=00:11:37.22 bitrate=9255.2kbits/s speed=60.6x    frame=43366 fps=3609 q=-1.0 size=  818944kB time=00:12:02.34 bitrate=9287.5kbits/s speed=60.1x    frame=45051 fps=3600 q=-1.0 size=  854272kB time=00:12:30.39 bitrate=9326.1kbits/s speed=  60x    frame=46728 fps=3590 q=-1.0 size=  888832kB time=00:12:58.31 bitrate=9355.2kbits/s speed=59.8x    frame=48383 fps=3580 q=-1.0 size=  923136kB time=00:13:25.91 bitrate=9383.5kbits/s speed=59.6x    frame=50056 fps=3571 q=-1.0 size=  958208kB time=00:13:53.78 bitrate=9414.5kbits/s speed=59.5x    frame=51701 fps=3562 q=-1.0 size=  992256kB time=00:14:21.18 bitrate=9438.8kbits/s speed=59.3x    frame=53330 fps=3552 q=-1.0 size= 1026304kB time=00:14:48.33 bitrate=9464.3kbits/s speed=59.2x    frame=55013 fps=3545 q=-1.0 size= 1061120kB time=00:15:16.36 bitrate=9486.0kbits/s speed=59.1x    frame=56653 fps=3537 q=-1.0 size= 1095424kB time=00:15:43.68 bitrate=9509.3kbits/s speed=58.9x    frame=58428 fps=3537 q=-1.0 size= 1132032kB time=00:16:13.26 bitrate=9528.4kbits/s speed=58.9x    frame=60201 fps=3538 q=-1.0 size= 1169152kB time=00:16:42.78 bitrate=9551.1kbits/s speed=58.9x    frame=61951 fps=3536 q=-1.0 size= 1205504kB time=00:17:11.93 bitrate=9569.9kbits/s speed=58.9x    frame=63534 fps=3526 q=-1.0 size= 1238272kB time=00:17:38.32 bitrate=9584.9kbits/s speed=58.7x    frame=65421 fps=3532 q=-1.0 size= 1277696kB time=00:18:09.73 bitrate=9605.0kbits/s speed=58.8x    frame=67110 fps=3528 q=-1.0 size= 1312768kB time=00:18:37.91 bitrate=9619.9kbits/s speed=58.8x    frame=68733 fps=3521 q=-1.0 size= 1346560kB time=00:19:04.95 bitrate=9634.5kbits/s speed=58.7x    frame=70661 fps=3529 q=-1.0 size= 1385728kB time=00:19:37.07 bitrate=9644.2kbits/s speed=58.8x    frame=72356 fps=3526 q=-1.0 size= 1421056kB time=00:20:05.28 bitrate=9658.5kbits/s speed=58.7x    frame=74010 fps=3521 q=-1.0 size= 1455360kB time=00:20:32.85 bitrate=9670.5kbits/s speed=58.6x    frame=75752 fps=3520 q=-1.0 size= 1491712kB time=00:21:01.84 bitrate=9684.3kbits/s speed=58.6x    frame=77486 fps=3518 q=-1.0 size= 1527808kB time=00:21:30.75 bitrate=9696.5kbits/s speed=58.6x    frame=79206 fps=3517 q=-1.0 size= 1563904kB time=00:21:59.42 bitrate=9709.9kbits/s speed=58.6x    frame=80995 fps=3518 q=-1.0 size= 1600768kB time=00:22:29.19 bitrate=9719.5kbits/s speed=58.6x    frame=82716 fps=3516 q=-1.0 size= 1636608kB time=00:22:57.87 bitrate=9730.3kbits/s speed=58.6x    frame=84429 fps=3514 q=-1.0 size= 1672192kB time=00:23:26.39 bitrate=9740.2kbits/s speed=58.5x    frame=86176 fps=3514 q=-1.0 size= 1708544kB time=00:23:55.52 bitrate=9750.0kbits/s speed=58.5x    frame=87926 fps=3513 q=-1.0 size= 1744896kB time=00:24:24.67 bitrate=9759.3kbits/s speed=58.5x    frame=89685 fps=3514 q=-1.0 size= 1781504kB time=00:24:53.97 bitrate=9768.6kbits/s speed=58.5x    frame=91528 fps=3517 q=-1.0 size= 1819648kB time=00:25:24.67 bitrate=9776.9kbits/s speed=58.6x    frame=93266 fps=3516 q=-1.0 size= 1856000kB time=00:25:53.62 bitrate=9786.4kbits/s speed=58.6x    frame=95104 fps=3519 q=-1.0 size= 1894144kB time=00:26:24.23 bitrate=9794.5kbits/s speed=58.6x    frame=96938 fps=3521 q=-1.0 size= 1932288kB time=00:26:54.78 bitrate=9802.7kbits/s speed=58.7x    frame=98697 fps=3521 q=-1.0 size= 1968896kB time=00:27:24.08 bitrate=9810.4kbits/s speed=58.7x    frame=100593 fps=3526 q=-1.0 size= 2007552kB time=00:27:55.64 bitrate=9814.7kbits/s speed=58.7x    frame=102508 fps=3531 q=-1.0 size= 2047488kB time=00:28:27.55 bitrate=9822.8kbits/s speed=58.8x    frame=104278 fps=3531 q=-1.0 size= 2084096kB time=00:28:57.06 bitrate=9828.6kbits/s speed=58.8x    frame=105879 fps=3526 q=-1.0 size= 2117632kB time=00:29:23.75 bitrate=9835.6kbits/s speed=58.7x    frame=107473 fps=3520 q=-1.0 size= 2150912kB time=00:29:50.29 bitrate=9842.1kbits/s speed=58.6x    frame=109043 fps=3514 q=-1.0 size= 2183680kB time=00:30:16.46 bitrate=9848.1kbits/s speed=58.5x    frame=110609 fps=3508 q=-1.0 size= 2215936kB time=00:30:42.54 bitrate=9852.1kbits/s speed=58.4x    frame=112227 fps=3504 q=-1.0 size= 2249728kB time=00:31:09.46 bitrate=9858.3kbits/s speed=58.4x    frame=113786 fps=3498 q=-1.0 size= 2281984kB time=00:31:35.45 bitrate=9862.6kbits/s speed=58.3x    frame=115393 fps=3493 q=-1.0 size= 2315520kB time=00:32:02.22 bitrate=9868.1kbits/s speed=58.2x    frame=117053 fps=3491 q=-1.0 size= 2350336kB time=00:32:29.87 bitrate=9874.5kbits/s speed=58.1x    frame=118641 fps=3486 q=-1.0 size= 2382848kB time=00:32:56.30 bitrate=9877.2kbits/s speed=58.1x    frame=120379 fps=3486 q=-1.0 size= 2419200kB time=00:33:25.26 bitrate=9883.0kbits/s speed=58.1x    frame=122153 fps=3487 q=-1.0 size= 2456064kB time=00:33:54.82 bitrate=9887.8kbits/s speed=58.1x    frame=123845 fps=3485 q=-1.0 size= 2491392kB time=00:34:23.04 bitrate=9892.9kbits/s speed=58.1x    frame=125655 fps=3487 q=-1.0 size= 2528768kB time=00:34:53.19 bitrate=9896.7kbits/s speed=58.1x    frame=127462 fps=3489 q=-1.0 size= 2566400kB time=00:35:23.31 bitrate=9901.5kbits/s speed=58.1x    frame=129248 fps=3490 q=-1.0 size= 2603520kB time=00:35:53.04 bitrate=9906.0kbits/s speed=58.1x    frame=131103 fps=3493 q=-1.0 size= 2642176kB time=00:36:23.92 bitrate=9910.9kbits/s speed=58.2x    frame=132946 fps=3495 q=-1.0 size= 2680320kB time=00:36:54.63 bitrate=9914.6kbits/s speed=58.2x    frame=134634 fps=3494 q=-1.0 size= 2715392kB time=00:37:22.75 bitrate=9918.4kbits/s speed=58.2x    frame=136297 fps=3491 q=-1.0 size= 2750208kB time=00:37:50.44 bitrate=9923.0kbits/s speed=58.2x    frame=138122 fps=3493 q=-1.0 size= 2788096kB time=00:38:20.85 bitrate=9926.8kbits/s speed=58.2x    frame=139887 fps=3494 q=-1.0 size= 2822400kB time=00:38:50.25 bitrate=9922.1kbits/s speed=58.2x    frame=141731 fps=3496 q=-1.0 size= 2860544kB time=00:39:20.97 bitrate=9925.4kbits/s speed=58.2x    frame=143543 fps=3497 q=-1.0 size= 2898688kB time=00:39:51.15 bitrate=9930.8kbits/s speed=58.3x    frame=145146 fps=3494 q=-1.0 size= 2931712kB time=00:40:17.85 bitrate=9933.0kbits/s speed=58.2x    frame=146857 fps=3493 q=-1.0 size= 2967296kB time=00:40:46.37 bitrate=9936.4kbits/s speed=58.2x    frame=148685 fps=3495 q=-1.0 size= 3005440kB time=00:41:16.81 bitrate=9940.4kbits/s speed=58.2x    frame=150369 fps=3493 q=-1.0 size= 3040512kB time=00:41:44.89 bitrate=9943.7kbits/s speed=58.2x    frame=152229 fps=3496 q=-1.0 size= 3079168kB time=00:42:15.86 bitrate=9947.1kbits/s speed=58.2x    frame=154066 fps=3498 q=-1.0 size= 3117568kB time=00:42:46.44 bitrate=9951.2kbits/s speed=58.3x    frame=155825 fps=3498 q=-1.0 size= 3153920kB time=00:43:15.74 bitrate=9953.6kbits/s speed=58.3x    frame=157628 fps=3499 q=-1.0 size= 3191296kB time=00:43:45.81 bitrate=9956.2kbits/s speed=58.3x    frame=159453 fps=3501 q=-1.0 size= 3229440kB time=00:44:16.21 bitrate=9959.9kbits/s speed=58.3x    frame=161105 fps=3499 q=-1.0 size= 3263744kB time=00:44:43.69 bitrate=9962.6kbits/s speed=58.3x    frame=162703 fps=3495 q=-1.0 size= 3297024kB time=00:45:10.33 bitrate=9965.3kbits/s speed=58.2x    frame=164576 fps=3498 q=-1.0 size= 3335936kB time=00:45:41.53 bitrate=9968.2kbits/s speed=58.3x    frame=166293 fps=3497 q=-1.0 size= 3371776kB time=00:46:10.12 bitrate=9971.3kbits/s speed=58.3x    frame=168152 fps=3499 q=-1.0 size= 3410176kB time=00:46:41.10 bitrate=9973.3kbits/s speed=58.3x    frame=169884 fps=3499 q=-1.0 size= 3446272kB time=00:47:09.95 bitrate=9976.1kbits/s speed=58.3x    frame=171630 fps=3499 q=-1.0 size= 3482624kB time=00:47:39.02 bitrate=9978.8kbits/s speed=58.3x    frame=173475 fps=3501 q=-1.0 size= 3520768kB time=00:48:09.73 bitrate=9980.9kbits/s speed=58.3x    frame=175281 fps=3502 q=-1.0 size= 3558400kB time=00:48:39.80 bitrate=9983.7kbits/s speed=58.3x    frame=177010 fps=3501 q=-1.0 size= 3591168kB time=00:49:08.63 bitrate=9977.1kbits/s speed=58.3x    frame=180595 fps=3537 q=-1.0 size= 3624192kB time=00:50:08.37 bitrate=9868.9kbits/s speed=58.9x    frame=184449 fps=3578 q=-1.0 size= 3660544kB time=00:51:12.56 bitrate=9759.6kbits/s speed=59.6x    frame=186962 fps=3591 q=-1.0 size= 3692800kB time=00:51:54.42 bitrate=9713.3kbits/s speed=59.8x    frame=189627 fps=3608 q=-1.0 size= 3726848kB time=00:52:38.80 bitrate=9665.2kbits/s speed=60.1x    frame=191468 fps=3609 q=-1.0 size= 3764224kB time=00:53:09.45 bitrate=9668.3kbits/s speed=60.1x    frame=193957 fps=3621 q=-1.0 size= 3796224kB time=00:53:50.95 bitrate=9625.2kbits/s speed=60.3x    frame=196032 fps=3626 q=-1.0 size= 3830016kB time=00:54:25.51 bitrate=9608.1kbits/s speed=60.4x    frame=198275 fps=3634 q=-1.0 size= 3865088kB time=00:55:02.85 bitrate=9586.5kbits/s speed=60.5x    frame=200082 fps=3634 q=-1.0 size= 3897088kB time=00:55:32.98 bitrate=9578.5kbits/s speed=60.5x    frame=201814 fps=3632 q=-1.0 size= 3930880kB time=00:56:01.81 bitrate=9578.7kbits/s speed=60.5x    frame=204169 fps=3642 q=-1.0 size= 3964160kB time=00:56:41.09 bitrate=9548.2kbits/s speed=60.7x    frame=205843 fps=3639 q=-1.0 size= 3995648kB time=00:57:08.98 bitrate=9545.8kbits/s speed=60.6x    frame=208056 fps=3646 q=-1.0 size= 4029952kB time=00:57:45.85 bitrate=9525.3kbits/s speed=60.7x    frame=210038 fps=3649 q=-1.0 size= 4066304kB time=00:58:18.85 bitrate=9520.6kbits/s speed=60.8x    frame=212676 fps=3663 q=-1.0 size= 4097536kB time=00:59:02.78 bitrate=9474.7kbits/s speed=  61x    frame=215324 fps=3677 q=-1.0 size= 4131584kB time=00:59:46.93 bitrate=9435.9kbits/s speed=61.2x    frame=217501 fps=3682 q=-1.0 size= 4163072kB time=01:00:23.21 bitrate=9412.6kbits/s speed=61.3x    frame=219782 fps=3690 q=-1.0 size= 4194304kB time=01:01:01.21 bitrate=9384.8kbits/s speed=61.5x    frame=222170 fps=3699 q=-1.0 size= 4228096kB time=01:01:40.96 bitrate=9358.8kbits/s speed=61.6x    frame=224293 fps=3703 q=-1.0 size= 4262144kB time=01:02:16.36 bitrate=9344.8kbits/s speed=61.7x    frame=226788 fps=3714 q=-1.0 size= 4294656kB time=01:02:57.91 bitrate=9312.5kbits/s speed=61.9x    frame=228982 fps=3719 q=-1.0 size= 4332032kB time=01:03:34.44 bitrate=9303.6kbits/s speed=  62x    frame=230628 fps=3716 q=-1.0 size= 4366080kB time=01:04:01.88 bitrate=9309.7kbits/s speed=61.9x    frame=232452 fps=3715 q=-1.0 size= 4399104kB time=01:04:32.26 bitrate=9306.6kbits/s speed=61.9x    frame=234148 fps=3713 q=-1.0 size= 4432896kB time=01:05:00.52 bitrate=9310.1kbits/s speed=61.8x    frame=236133 fps=3715 q=-1.0 size= 4466688kB time=01:05:33.61 bitrate=9302.2kbits/s speed=61.9x    frame=237686 fps=3710 q=-1.0 size= 4498432kB time=01:05:59.44 bitrate=9307.2kbits/s speed=61.8x    frame=240465 fps=3724 q=-1.0 size= 4530432kB time=01:06:45.72 bitrate=9265.1kbits/s speed=  62x    frame=243349 fps=3740 q=-1.0 size= 4563456kB time=01:07:33.77 bitrate=9222.0kbits/s speed=62.3x    frame=245417 fps=3743 q=-1.0 size= 4594688kB time=01:08:08.24 bitrate=9206.8kbits/s speed=62.4x    frame=247907 fps=3752 q=-1.0 size= 4628736kB time=01:08:49.71 bitrate=9181.9kbits/s speed=62.5x    frame=249924 fps=3754 q=-1.0 size= 4663552kB time=01:09:23.31 bitrate=9176.3kbits/s speed=62.5x    frame=251854 fps=3755 q=-1.0 size= 4695296kB time=01:09:55.48 bitrate=9167.9kbits/s speed=62.6x    frame=255332 fps=3779 q=-1.0 size= 4726784kB time=01:10:53.40 bitrate=9103.7kbits/s speed=62.9x    frame=256944 fps=3775 q=-1.0 size= 4758272kB time=01:11:20.24 bitrate=9106.9kbits/s speed=62.9x    frame=258545 fps=3770 q=-1.0 size= 4791552kB time=01:11:46.89 bitrate=9113.8kbits/s speed=62.8x    frame=260481 fps=3771 q=-1.0 size= 4823552kB time=01:12:19.18 bitrate=9106.4kbits/s speed=62.8x    frame=262454 fps=3772 q=-1.0 size= 4859136kB time=01:12:52.04 bitrate=9104.7kbits/s speed=62.8x    frame=264265 fps=3771 q=-1.0 size= 4892672kB time=01:13:22.20 bitrate=9104.7kbits/s speed=62.8x    frame=266126 fps=3771 q=-1.0 size= 4924416kB time=01:13:53.23 bitrate=9099.6kbits/s speed=62.8x    frame=268949 fps=3784 q=-1.0 size= 4958208kB time=01:14:40.24 bitrate=9065.9kbits/s speed=  63x    frame=270733 fps=3783 q=-1.0 size= 4990976kB time=01:15:09.98 bitrate=9065.7kbits/s speed=  63x    frame=272649 fps=3783 q=-1.0 size= 5025024kB time=01:15:41.91 bitrate=9063.4kbits/s speed=  63x    frame=274698 fps=3785 q=-1.0 size= 5059840kB time=01:16:16.05 bitrate=9058.1kbits/s speed=63.1x    frame=276301 fps=3781 q=-1.0 size= 5091840kB time=01:16:42.75 bitrate=9062.5kbits/s speed=  63x    frame=277933 fps=3778 q=-1.0 size= 5125376kB time=01:17:09.92 bitrate=9068.6kbits/s speed=62.9x    frame=279748 fps=3776 q=-1.0 size= 5157632kB time=01:17:40.17 bitrate=9066.5kbits/s speed=62.9x    frame=282372 fps=3786 q=-1.0 size= 5188608kB time=01:18:23.85 bitrate=9036.2kbits/s speed=63.1x    frame=284291 fps=3787 q=-1.0 size= 5219840kB time=01:18:55.81 bitrate=9029.3kbits/s speed=63.1x    frame=285768 fps=3781 q=-1.0 size= 5249792kB time=01:19:20.42 bitrate=9034.1kbits/s speed=  63x    frame=287733 fps=3782 q=-1.0 size= 5281536kB time=01:19:53.17 bitrate=9026.7kbits/s speed=  63x    frame=289604 fps=3782 q=-1.0 size= 5315072kB time=01:20:24.33 bitrate=9025.3kbits/s speed=  63x    frame=291199 fps=3778 q=-1.0 size= 5348096kB time=01:20:50.89 bitrate=9031.6kbits/s speed=62.9x    frame=293878 fps=3788 q=-1.0 size= 5381888kB time=01:21:35.53 bitrate=9005.9kbits/s speed=63.1x    frame=295921 fps=3790 q=-1.0 size= 5415424kB time=01:22:09.53 bitrate=8999.5kbits/s speed=63.1x    frame=297431 fps=3785 q=-1.0 size= 5446400kB time=01:22:34.72 bitrate=9004.9kbits/s speed=63.1x    frame=299223 fps=3784 q=-1.0 size= 5481216kB time=01:23:04.57 bitrate=9008.2kbits/s speed=  63x    frame=302189 fps=3797 q=-1.0 size= 5512448kB time=01:23:53.97 bitrate=8970.6kbits/s speed=63.3x    frame=304965 fps=3808 q=-1.0 size= 5543936kB time=01:24:40.22 bitrate=8939.8kbits/s speed=63.4x    frame=306742 fps=3807 q=-1.0 size= 5575168kB time=01:25:09.82 bitrate=8938.0kbits/s speed=63.4x    frame=308465 fps=3804 q=-1.0 size= 5607424kB time=01:25:38.51 bitrate=8939.6kbits/s speed=63.4x    frame=310417 fps=3805 q=-1.0 size= 5640960kB time=01:26:11.01 bitrate=8936.5kbits/s speed=63.4x    frame=312086 fps=3802 q=-1.0 size= 5674752kB time=01:26:38.83 bitrate=8941.9kbits/s speed=63.3x    frame=314200 fps=3805 q=-1.0 size= 5709312kB time=01:27:14.05 bitrate=8935.8kbits/s speed=63.4x    frame=315932 fps=3803 q=-1.0 size= 5744128kB time=01:27:42.91 bitrate=8941.0kbits/s speed=63.3x    frame=317642 fps=3800 q=-1.0 size= 5778432kB time=01:28:11.39 bitrate=8946.0kbits/s speed=63.3x    frame=320433 fps=3811 q=-1.0 size= 5810688kB time=01:28:57.89 bitrate=8917.6kbits/s speed=63.5x    frame=322404 fps=3812 q=-1.0 size= 5846272kB time=01:29:30.75 bitrate=8917.3kbits/s speed=63.5x    frame=324091 fps=3809 q=-1.0 size= 5881088kB time=01:29:58.86 bitrate=8923.7kbits/s speed=63.5x    frame=326101 fps=3810 q=-1.0 size= 5916160kB time=01:30:32.33 bitrate=8921.6kbits/s speed=63.5x    frame=328113 fps=3811 q=-1.0 size= 5951488kB time=01:31:05.83 bitrate=8919.9kbits/s speed=63.5x    frame=329760 fps=3808 q=-1.0 size= 5985792kB time=01:31:33.24 bitrate=8926.5kbits/s speed=63.4x    frame=331720 fps=3809 q=-1.0 size= 6019584kB time=01:32:05.90 bitrate=8923.9kbits/s speed=63.5x    frame=333829 fps=3811 q=-1.0 size= 6055936kB time=01:32:41.04 bitrate=8921.0kbits/s speed=63.5x    frame=335754 fps=3812 q=-1.0 size= 6089472kB time=01:33:13.10 bitrate=8919.0kbits/s speed=63.5x    frame=338118 fps=3817 q=-1.0 size= 6123008kB time=01:33:52.50 bitrate=8905.4kbits/s speed=63.6x    frame=339867 fps=3815 q=-1.0 size= 6159360kB time=01:34:21.62 bitrate=8912.2kbits/s speed=63.6x    frame=341596 fps=3813 q=-1.0 size= 6192896kB time=01:34:50.43 bitrate=8915.3kbits/s speed=63.5x    frame=343817 fps=3816 q=-1.0 size= 6226176kB time=01:35:27.44 bitrate=8905.3kbits/s speed=63.6x    frame=345664 fps=3816 q=-1.0 size= 6261760kB time=01:35:58.19 bitrate=8908.4kbits/s speed=63.6x    frame=347383 fps=3814 q=-1.0 size= 6295808kB time=01:36:26.82 bitrate=8912.5kbits/s speed=63.5x    frame=349162 fps=3812 q=-1.0 size= 6328832kB time=01:36:56.46 bitrate=8913.6kbits/s speed=63.5x    frame=350894 fps=3810 q=-1.0 size= 6364672kB time=01:37:25.29 bitrate=8919.9kbits/s speed=63.5x    frame=352914 fps=3811 q=-1.0 size= 6398208kB time=01:37:58.89 bitrate=8915.6kbits/s speed=63.5x    frame=354756 fps=3811 q=-1.0 size= 6434304kB time=01:38:29.59 bitrate=8919.4kbits/s speed=63.5x    frame=356649 fps=3811 q=-1.0 size= 6469120kB time=01:39:01.12 bitrate=8920.0kbits/s speed=63.5x    frame=358525 fps=3810 q=-1.0 size= 6503680kB time=01:39:32.40 bitrate=8920.7kbits/s speed=63.5x    frame=360419 fps=3810 q=-1.0 size= 6540032kB time=01:40:03.90 bitrate=8923.5kbits/s speed=63.5x    frame=362262 fps=3809 q=-1.0 size= 6574848kB time=01:40:34.62 bitrate=8925.4kbits/s speed=63.5x    frame=364439 fps=3812 q=-1.0 size= 6609152kB time=01:41:10.90 bitrate=8918.3kbits/s speed=63.5x    frame=366353 fps=3812 q=-1.0 size= 6644224kB time=01:41:42.77 bitrate=8918.8kbits/s speed=63.5x    frame=368168 fps=3811 q=-1.0 size= 6679552kB time=01:42:13.00 bitrate=8922.0kbits/s speed=63.5x    frame=369947 fps=3810 q=-1.0 size= 6712320kB time=01:42:42.62 bitrate=8922.7kbits/s speed=63.5x    frame=371565 fps=3807 q=-1.0 size= 6746112kB time=01:43:09.58 bitrate=8928.6kbits/s speed=63.4x    frame=374541 fps=3818 q=-1.0 size= 6779904kB time=01:43:59.18 bitrate=8902.0kbits/s speed=63.6x    frame=376663 fps=3820 q=-1.0 size= 6812928kB time=01:44:34.53 bitrate=8894.9kbits/s speed=63.6x    frame=378610 fps=3821 q=-1.0 size= 6846464kB time=01:45:06.96 bitrate=8892.7kbits/s speed=63.6x    frame=380693 fps=3822 q=-1.0 size= 6883072kB time=01:45:41.65 bitrate=8891.4kbits/s speed=63.7x    frame=382568 fps=3822 q=-1.0 size= 6917120kB time=01:46:12.89 bitrate=8891.6kbits/s speed=63.7x    frame=388821 fps=3865 q=-1.0 size= 6947072kB time=01:47:57.06 bitrate=8786.4kbits/s speed=64.4x    frame=392200 fps=3879 q=-1.0 size= 6979584kB time=01:48:53.37 bitrate=8751.5kbits/s speed=64.6x    frame=394468 fps=3883 q=-1.0 size= 7012096kB time=01:49:31.16 bitrate=8741.7kbits/s speed=64.7x    frame=396374 fps=3882 q=-1.0 size= 7047936kB time=01:50:02.91 bitrate=8744.1kbits/s speed=64.7x    frame=398339 fps=3882 q=-1.0 size= 7083008kB time=01:50:35.61 bitrate=8744.3kbits/s speed=64.7x    frame=400124 fps=3881 q=-1.0 size= 7115008kB time=01:51:05.38 bitrate=8744.6kbits/s speed=64.6x    frame=402019 fps=3880 q=-1.0 size= 7150592kB time=01:51:36.93 bitrate=8746.9kbits/s speed=64.6x    frame=403931 fps=3880 q=-1.0 size= 7187712kB time=01:52:08.81 bitrate=8750.7kbits/s speed=64.6x    frame=405545 fps=3877 q=-1.0 size= 7218432kB time=01:52:35.69 bitrate=8753.1kbits/s speed=64.6x    frame=407521 fps=3877 q=-1.0 size= 7254016kB time=01:53:08.60 bitrate=8753.6kbits/s speed=64.6x    frame=409985 fps=3882 q=-1.0 size= 7291648kB time=01:53:49.65 bitrate=8746.2kbits/s speed=64.7x    frame=412471 fps=3887 q=-1.0 size= 7323136kB time=01:54:31.06 bitrate=8731.0kbits/s speed=64.8x    frame=414275 fps=3886 q=-1.0 size= 7356160kB time=01:55:01.11 bitrate=8732.2kbits/s speed=64.7x    frame=415593 fps=3880 q=-1.0 size= 7382528kB time=01:55:23.08 bitrate=8735.7kbits/s speed=64.6x    frame=417260 fps=3878 q=-1.0 size= 7416064kB time=01:55:50.84 bitrate=8740.3kbits/s speed=64.6x    frame=421056 fps=3895 q=-1.0 size= 7452160kB time=01:56:54.07 bitrate=8703.7kbits/s speed=64.9x    frame=423665 fps=3901 q=-1.0 size= 7487232kB time=01:57:37.51 bitrate=8690.8kbits/s speed=  65x    frame=425874 fps=3903 q=-1.0 size= 7519232kB time=01:58:14.33 bitrate=8682.6kbits/s speed=  65x    frame=429016 fps=3914 q=-1.0 size= 7555328kB time=01:59:06.69 bitrate=8660.4kbits/s speed=65.2x    frame=431076 fps=3915 q=-1.0 size= 7588864kB time=01:59:40.99 bitrate=8657.3kbits/s speed=65.2x    frame=433124 fps=3916 q=-1.0 size= 7625984kB time=02:00:15.07 bitrate=8658.5kbits/s speed=65.2x    frame=435364 fps=3918 q=-1.0 size= 7662592kB time=02:00:52.39 bitrate=8655.3kbits/s speed=65.3x    frame=437032 fps=3916 q=-1.0 size= 7696896kB time=02:01:20.16 bitrate=8660.9kbits/s speed=65.2x    frame=438961 fps=3915 q=-1.0 size= 7731200kB time=02:01:52.31 bitrate=8661.3kbits/s speed=65.2x    frame=440785 fps=3914 q=-1.0 size= 7766016kB time=02:02:22.67 bitrate=8664.3kbits/s speed=65.2x    frame=442829 fps=3915 q=-1.0 size= 7801344kB time=02:02:56.71 bitrate=8663.6kbits/s speed=65.2x    frame=444893 fps=3916 q=-1.0 size= 7836672kB time=02:03:31.11 bitrate=8662.4kbits/s speed=65.2x    frame=446886 fps=3916 q=-1.0 size= 7872000kB time=02:04:04.27 bitrate=8662.7kbits/s speed=65.2x    frame=448736 fps=3915 q=-1.0 size= 7904768kB time=02:04:35.09 bitrate=8662.9kbits/s speed=65.2x    frame=450724 fps=3916 q=-1.0 size= 7940608kB time=02:05:08.20 bitrate=8663.8kbits/s speed=65.2x    frame=452241 fps=3912 q=-1.0 size= 7971328kB time=02:05:33.46 bitrate=8668.1kbits/s speed=65.2x    frame=454513 fps=3914 q=-1.0 size= 8008448kB time=02:06:11.33 bitrate=8664.9kbits/s speed=65.2x    frame=457295 fps=3921 q=-1.0 size= 8044288kB time=02:06:57.70 bitrate=8650.7kbits/s speed=65.3x    frame=459037 fps=3920 q=-1.0 size= 8076800kB time=02:07:26.72 bitrate=8652.7kbits/s speed=65.3x    frame=460891 fps=3919 q=-1.0 size= 8114176kB time=02:07:57.58 bitrate=8657.8kbits/s speed=65.3x    frame=462757 fps=3918 q=-1.0 size= 8150784kB time=02:08:28.68 bitrate=8661.8kbits/s speed=65.3x    frame=464390 fps=3915 q=-1.0 size= 8182272kB time=02:08:55.88 bitrate=8664.7kbits/s speed=65.2x    frame=466184 fps=3914 q=-1.0 size= 8218368kB time=02:09:25.74 bitrate=8669.5kbits/s speed=65.2x    frame=468035 fps=3913 q=-1.0 size= 8255488kB time=02:09:56.57 bitrate=8674.2kbits/s speed=65.2x    frame=469732 fps=3911 q=-1.0 size= 8288512kB time=02:10:24.84 bitrate=8677.4kbits/s speed=65.1x    frame=471612 fps=3910 q=-1.0 size= 8324864kB time=02:10:56.16 bitrate=8680.7kbits/s speed=65.1x    frame=473504 fps=3909 q=-1.0 size= 8360960kB time=02:11:27.68 bitrate=8683.5kbits/s speed=65.1x    frame=475218 fps=3907 q=-1.0 size= 8394496kB time=02:11:56.22 bitrate=8686.9kbits/s speed=65.1x    frame=476936 fps=3905 q=-1.0 size= 8429056kB time=02:12:24.84 bitrate=8691.3kbits/s speed=65.1x    frame=478812 fps=3905 q=-1.0 size= 8464640kB time=02:12:56.09 bitrate=8693.8kbits/s speed=  65x    frame=480732 fps=3905 q=-1.0 size= 8499968kB time=02:13:28.08 bitrate=8695.2kbits/s speed=  65x    frame=482472 fps=3903 q=-1.0 size= 8534784kB time=02:13:57.02 bitrate=8699.4kbits/s speed=  65x    frame=484041 fps=3900 q=-1.0 size= 8567808kB time=02:14:23.19 bitrate=8704.7kbits/s speed=  65x    frame=486748 fps=3906 q=-1.0 size= 8596992kB time=02:15:08.30 bitrate=8685.7kbits/s speed=65.1x    frame=489874 fps=3915 q=-1.0 size= 8629248kB time=02:16:00.34 bitrate=8662.7kbits/s speed=65.2x    frame=492008 fps=3917 q=-1.0 size= 8664320kB time=02:16:35.89 bitrate=8660.2kbits/s speed=65.2x    frame=494504 fps=3921 q=-1.0 size= 8698112kB time=02:17:17.49 bitrate=8650.1kbits/s speed=65.3x    frame=496563 fps=3921 q=-1.0 size= 8732416kB time=02:17:51.80 bitrate=8648.2kbits/s speed=65.3x    frame=498583 fps=3922 q=-1.0 size= 8768000kB time=02:18:25.44 bitrate=8648.2kbits/s speed=65.3x    frame=500910 fps=3925 q=-1.0 size= 8797952kB time=02:19:04.20 bitrate=8637.5kbits/s speed=65.4x    frame=502764 fps=3924 q=-1.0 size= 8831488kB time=02:19:35.05 bitrate=8638.5kbits/s speed=65.4x    frame=504846 fps=3925 q=-1.0 size= 8865024kB time=02:20:09.76 bitrate=8635.5kbits/s speed=65.4x    frame=506655 fps=3924 q=-1.0 size= 8898560kB time=02:20:39.88 bitrate=8637.2kbits/s speed=65.4x    frame=509437 fps=3930 q=-1.0 size= 8931840kB time=02:21:26.23 bitrate=8622.2kbits/s speed=65.5x    frame=511293 fps=3929 q=-1.0 size= 8966656kB time=02:21:57.16 bitrate=8624.3kbits/s speed=65.5x    frame=513248 fps=3929 q=-1.0 size= 9001472kB time=02:22:29.72 bitrate=8624.8kbits/s speed=65.5x    frame=515199 fps=3929 q=-1.0 size= 9036800kB time=02:23:02.23 bitrate=8625.9kbits/s speed=65.4x    frame=517254 fps=3930 q=-1.0 size= 9071872kB time=02:23:36.45 bitrate=8625.0kbits/s speed=65.5x    frame=518979 fps=3928 q=-1.0 size= 9103872kB time=02:24:05.20 bitrate=8626.6kbits/s speed=65.4x    frame=521121 fps=3929 q=-1.0 size= 9139200kB time=02:24:40.90 bitrate=8624.5kbits/s speed=65.5x    frame=523408 fps=3932 q=-1.0 size= 9176064kB time=02:25:18.99 bitrate=8621.4kbits/s speed=65.5x    frame=525591 fps=3933 q=-1.0 size= 9207040kB time=02:25:55.38 bitrate=8614.6kbits/s speed=65.5x    frame=528068 fps=3937 q=-1.0 size= 9244928kB time=02:26:36.64 bitrate=8609.5kbits/s speed=65.6x    frame=529964 fps=3936 q=-1.0 size= 9280000kB time=02:27:08.22 bitrate=8611.2kbits/s speed=65.6x    frame=532722 fps=3942 q=-1.0 size= 9313280kB time=02:27:54.18 bitrate=8597.3kbits/s speed=65.7x    frame=534666 fps=3942 q=-1.0 size= 9349632kB time=02:28:26.54 bitrate=8599.5kbits/s speed=65.7x    frame=536810 fps=3943 q=-1.0 size= 9381632kB time=02:29:02.25 bitrate=8594.5kbits/s speed=65.7x    frame=539520 fps=3949 q=-1.0 size= 9416704kB time=02:29:47.38 bitrate=8583.3kbits/s speed=65.8x    frame=542209 fps=3954 q=-1.0 size= 9453824kB time=02:30:32.19 bitrate=8574.4kbits/s speed=65.9x    frame=544259 fps=3954 q=-1.0 size= 9483776kB time=02:31:06.30 bitrate=8569.2kbits/s speed=65.9x    frame=545948 fps=3952 q=-1.0 size= 9517824kB time=02:31:34.48 bitrate=8573.3kbits/s speed=65.8x    frame=547781 fps=3951 q=-1.0 size= 9553408kB time=02:32:04.99 bitrate=8576.6kbits/s speed=65.8x    frame=549573 fps=3950 q=-1.0 size= 9585408kB time=02:32:34.85 bitrate=8577.3kbits/s speed=65.8x    frame=551418 fps=3949 q=-1.0 size= 9621248kB time=02:33:05.58 bitrate=8580.5kbits/s speed=65.8x    frame=553097 fps=3947 q=-1.0 size= 9654784kB time=02:33:33.56 bitrate=8584.3kbits/s speed=65.7x    frame=556168 fps=3955 q=-1.0 size= 9683712kB time=02:34:24.68 bitrate=8562.5kbits/s speed=65.9x    frame=558257 fps=3955 q=-1.0 size= 9716736kB time=02:34:59.50 bitrate=8559.5kbits/s speed=65.9x    frame=560200 fps=3955 q=-1.0 size= 9751040kB time=02:35:31.85 bitrate=8560.0kbits/s speed=65.9x    frame=561838 fps=3953 q=-1.0 size= 9780992kB time=02:35:59.16 bitrate=8561.2kbits/s speed=65.8x    frame=564859 fps=3960 q=-1.0 size= 9812224kB time=02:36:49.48 bitrate=8542.6kbits/s speed=  66x    frame=567130 fps=3962 q=-1.0 size= 9845504kB time=02:37:27.29 bitrate=8537.3kbits/s speed=  66x    frame=569443 fps=3964 q=-1.0 size= 9877760kB time=02:38:05.83 bitrate=8530.5kbits/s speed=  66x    frame=573080 fps=3976 q=-1.0 size= 9912576kB time=02:39:06.44 bitrate=8506.2kbits/s speed=66.2x    frame=575534 fps=3979 q=-1.0 size= 9945856kB time=02:39:47.31 bitrate=8498.4kbits/s speed=66.3x    frame=577233 fps=3977 q=-1.0 size= 9978368kB time=02:40:15.58 bitrate=8501.1kbits/s speed=66.3x    frame=579031 fps=3976 q=-1.0 size=10012160kB time=02:40:45.55 bitrate=8503.4kbits/s speed=66.2x    frame=580982 fps=3975 q=-1.0 size=10049024kB time=02:41:18.05 bitrate=8506.0kbits/s speed=66.2x    frame=582874 fps=3975 q=-1.0 size=10081536kB time=02:41:49.55 bitrate=8505.8kbits/s speed=66.2x    frame=584703 fps=3974 q=-1.0 size=10116864kB time=02:42:20.01 bitrate=8509.0kbits/s speed=66.2x    frame=586748 fps=3974 q=-1.0 size=10152960kB time=02:42:54.11 bitrate=8509.5kbits/s speed=66.2x    frame=588658 fps=3974 q=-1.0 size=10188544kB time=02:43:25.92 bitrate=8511.6kbits/s speed=66.2x    frame=590720 fps=3974 q=-1.0 size=10225664kB time=02:44:00.28 bitrate=8512.8kbits/s speed=66.2x    frame=592669 fps=3974 q=-1.0 size=10261760kB time=02:44:32.77 bitrate=8514.8kbits/s speed=66.2x    frame=594362 fps=3972 q=-1.0 size=10295296kB time=02:45:00.94 bitrate=8518.3kbits/s speed=66.2x    frame=596042 fps=3970 q=-1.0 size=10327296kB time=02:45:28.96 bitrate=8520.6kbits/s speed=66.1x    frame=598002 fps=3970 q=-1.0 size=10364416kB time=02:46:01.61 bitrate=8523.2kbits/s speed=66.1x    frame=599841 fps=3969 q=-1.0 size=10400000kB time=02:46:32.26 bitrate=8526.3kbits/s speed=66.1x    frame=601651 fps=3967 q=-1.0 size=10435328kB time=02:47:02.42 bitrate=8529.5kbits/s speed=66.1x    frame=603523 fps=3967 q=-1.0 size=10470656kB time=02:47:33.59 bitrate=8531.8kbits/s speed=66.1x    frame=605395 fps=3966 q=-1.0 size=10504448kB time=02:48:04.81 bitrate=8532.9kbits/s speed=66.1x    frame=607218 fps=3965 q=-1.0 size=10539776kB time=02:48:35.17 bitrate=8535.9kbits/s speed=  66x    frame=609870 fps=3969 q=-1.0 size=10573056kB time=02:49:19.36 bitrate=8525.6kbits/s speed=66.1x    frame=612056 fps=3971 q=-1.0 size=10605568kB time=02:49:55.78 bitrate=8521.2kbits/s speed=66.1x    frame=615160 fps=3978 q=-1.0 size=10641152kB time=02:50:47.50 bitrate=8506.7kbits/s speed=66.3x    frame=617832 fps=3982 q=-1.0 size=10676736kB time=02:51:31.99 bitrate=8498.2kbits/s speed=66.3x    frame=619959 fps=3983 q=-1.0 size=10708736kB time=02:52:07.45 bitrate=8494.4kbits/s speed=66.4x    frame=623025 fps=3990 q=-1.0 size=10745088kB time=02:52:58.51 bitrate=8481.3kbits/s speed=66.5x    frame=624725 fps=3988 q=-1.0 size=10778368kB time=02:53:26.85 bitrate=8484.4kbits/s speed=66.4x    frame=626773 fps=3988 q=-1.0 size=10810624kB time=02:54:00.96 bitrate=8482.0kbits/s speed=66.4x    frame=628434 fps=3986 q=-1.0 size=10843904kB time=02:54:28.65 bitrate=8485.6kbits/s speed=66.4x    frame=630481 fps=3987 q=-1.0 size=10879744kB time=02:55:02.72 bitrate=8486.1kbits/s speed=66.4x    frame=632101 fps=3984 q=-1.0 size=10911488kB time=02:55:29.71 bitrate=8489.0kbits/s speed=66.4x    frame=633819 fps=3982 q=-1.0 size=10946048kB time=02:55:58.33 bitrate=8492.8kbits/s speed=66.3x    frame=635676 fps=3982 q=-1.0 size=10980608kB time=02:56:29.28 bitrate=8494.7kbits/s speed=66.3x    frame=637348 fps=3980 q=-1.0 size=11012352kB time=02:56:57.14 bitrate=8496.9kbits/s speed=66.3x    frame=639053 fps=3978 q=-1.0 size=11046656kB time=02:57:25.54 bitrate=8500.7kbits/s speed=66.3x    frame=640776 fps=3976 q=-1.0 size=11080960kB time=02:57:54.22 bitrate=8504.2kbits/s speed=66.2x    frame=642472 fps=3974 q=-1.0 size=11114240kB time=02:58:22.47 bitrate=8507.2kbits/s speed=66.2x    frame=644146 fps=3972 q=-1.0 size=11148032kB time=02:58:50.39 bitrate=8510.8kbits/s speed=66.2x    frame=646604 fps=3975 q=-1.0 size=11181056kB time=02:59:31.34 bitrate=8503.6kbits/s speed=66.2x    frame=648417 fps=3974 q=-1.0 size=11212288kB time=03:00:01.52 bitrate=8503.5kbits/s speed=66.2x    frame=650433 fps=3974 q=-1.0 size=11247872kB time=03:00:35.12 bitrate=8504.1kbits/s speed=66.2x    frame=652445 fps=3975 q=-1.0 size=11283968kB time=03:01:08.64 bitrate=8505.0kbits/s speed=66.2x    frame=655012 fps=3978 q=-1.0 size=11318272kB time=03:01:51.39 bitrate=8497.5kbits/s speed=66.3x    frame=657983 fps=3984 q=-1.0 size=11354112kB time=03:02:40.86 bitrate=8485.9kbits/s speed=66.4x    frame=660714 fps=3988 q=-1.0 size=11389184kB time=03:03:26.38 bitrate=8476.9kbits/s speed=66.4x    frame=663157 fps=3991 q=-1.0 size=11424512kB time=03:04:07.06 bitrate=8471.9kbits/s speed=66.5x    frame=665554 fps=3994 q=-1.0 size=11460864kB time=03:04:47.00 bitrate=8468.2kbits/s speed=66.5x    frame=667470 fps=3993 q=-1.0 size=11497472kB time=03:05:18.93 bitrate=8470.9kbits/s speed=66.5x    frame=669613 fps=3994 q=-1.0 size=11529984kB time=03:05:54.60 bitrate=8467.7kbits/s speed=66.5x    frame=672269 fps=3998 q=-1.0 size=11563520kB time=03:06:38.87 bitrate=8458.7kbits/s speed=66.6x    frame=676300 fps=4010 q=-1.0 size=11599360kB time=03:07:46.01 bitrate=8434.4kbits/s speed=66.8x    frame=680685 fps=4024 q=-1.0 size=11631616kB time=03:08:59.02 bitrate=8403.4kbits/s speed=  67x    frame=683716 fps=4030 q=-1.0 size=11667200kB time=03:09:49.51 bitrate=8391.7kbits/s speed=67.1x    frame=686787 fps=4036 q=-1.0 size=11703296kB time=03:10:40.65 bitrate=8380.1kbits/s speed=67.2x    frame=688941 fps=4037 q=-1.0 size=11736576kB time=03:11:16.54 bitrate=8377.6kbits/s speed=67.2x    frame=694333 fps=4057 q=-1.0 size=11769344kB time=03:12:46.35 bitrate=8335.8kbits/s speed=67.6x    frame=694395 fps=4057 q=-1.0 Lsize=11769627kB time=03:12:47.38 bitrate=8335.2kbits/s speed=67.6x    
video:11468564kB audio:277814kB subtitle:0kB other streams:0kB global headers:0kB muxing overhead: 0.197933%
